<?xml version="1.0" encoding="UTF-8"?>
<svg width="546px" height="128px" viewBox="0 0 546 128" version="1.1" xmlns="http://www.w3.org/2000/svg" xmlns:xlink="http://www.w3.org/1999/xlink">
    <title>polygon-logowhite</title>
    <g id="Page-1" stroke="none" stroke-width="1" fill="none" fill-rule="evenodd">
        <g id="2.0-CryptoXpress---Feature-Set" transform="translate(-447.000000, -3854.000000)" fill-rule="nonzero">
            <g id="polygon-logowhite" transform="translate(447.000000, 3854.000000)">
                <g id="Group" transform="translate(170.000000, 0.000000)" fill="#212121">
                    <path d="M44.2352941,40.2612827 C47.5786594,42.4085511 50.4076607,45.3610451 52.2079343,49.3871734 C54.2653899,53.4133017 55.2941176,58.2446556 55.2941176,63.6128266 C55.2941176,68.9809976 54.2653899,73.543943 51.9507524,77.5700713 C49.8932969,81.5961995 46.8071135,84.5486936 42.9493844,86.4275534 C39.0916553,88.5748219 34.4623803,89.6484561 29.5759234,89.6484561 C26.746922,89.6484561 24.1751026,89.111639 21.6032832,88.0380048 C19.0314637,87.2327791 16.7168263,85.6223278 14.9165527,83.7434679 L14.9165527,111.657957 L-2.48689958e-14,111.657957 L-2.48689958e-14,38.1140143 L12.8590971,38.1140143 L14.1450068,44.0190024 C19.8030096,39.1876485 25.9753762,36.7719715 32.4049248,36.7719715 C36.7770178,36.7719715 40.8919289,37.8456057 44.2352941,40.2612827 Z M36.005472,73.543943 C38.5772914,71.128266 39.8632011,67.9073634 39.8632011,63.8812352 C39.8632011,59.8551069 38.5772914,56.6342043 36.2626539,53.9501188 C33.9480164,51.2660333 30.8618331,50.192399 27.5184679,50.192399 C24.6894665,50.192399 22.1176471,50.7292162 20.0601915,52.0712589 C18.002736,53.1448931 16.4596443,55.023753 15.1737346,57.4394299 L15.1737346,69.5178147 C15.9452804,71.9334917 17.4883721,73.8123515 19.2886457,75.1543943 C21.3461012,76.4964371 23.6607387,77.3016627 26.4897401,77.3016627 C30.3474692,77.3016627 33.4336525,75.95962 36.005472,73.543943 Z" id="Shape"></path>
                    <path d="M64.0383037,49.6555819 C66.3529412,45.8978622 69.4391245,42.6769596 73.5540356,40.5296912 C77.6689466,38.3824228 82.2982216,37.04038 87.4418605,37.04038 C92.5854993,37.04038 97.2147743,38.1140143 101.329685,40.5296912 C105.187415,42.6769596 108.273598,45.8978622 110.588235,49.9239905 C112.902873,53.9501188 113.931601,58.2446556 113.931601,63.3444181 C113.931601,68.4441805 112.902873,72.7387173 110.588235,76.7648456 C108.273598,80.7909739 105.444596,84.0118765 101.329685,86.1591449 C97.4719562,88.3064133 92.5854993,89.6484561 87.4418605,89.6484561 C82.2982216,89.6484561 77.6689466,88.5748219 73.5540356,86.4275534 C69.4391245,84.280285 66.3529412,81.327791 64.0383037,77.3016627 C61.9808482,73.2755344 60.6949384,68.7125891 60.6949384,63.3444181 C60.6949384,58.2446556 61.9808482,53.6817102 64.0383037,49.6555819 Z M79.2120383,73.0071259 C81.2694938,75.6912114 84.0984952,76.7648456 87.4418605,76.7648456 C90.7852257,76.7648456 93.6142271,75.4228029 95.6716826,73.0071259 C97.7291382,70.5914489 98.7578659,67.1021378 98.7578659,63.3444181 C98.7578659,59.3182898 97.7291382,56.0973872 95.6716826,53.6817102 C93.3570451,50.9976247 90.7852257,49.6555819 87.1846785,49.6555819 C83.8413133,49.6555819 81.2694938,50.9976247 78.9548564,53.4133017 C76.8974008,56.0973872 75.8686731,59.3182898 75.8686731,63.3444181 C75.8686731,67.1021378 76.8974008,70.3230404 79.2120383,73.0071259 Z" id="Shape"></path>
                    <polygon id="Path" points="138.106703 0 138.106703 88.3064133 123.19015 88.3064133 123.19015 0"></polygon>
                    <polygon id="Path" points="199.316005 39.456057 168.968536 111.926366 154.566347 111.926366 165.882353 85.8907363 144.27907 39.456057 161.253078 39.456057 173.597811 68.4441805 185.942544 39.456057"></polygon>
                    <path d="M256.410397,39.456057 L256.410397,88.3064133 C256.410397,92.8693587 255.124487,97.1638955 252.552668,100.921615 C249.980848,104.679335 246.637483,107.631829 242.26539,109.779097 C237.893297,111.926366 233.264022,113 228.120383,113 C224.262654,113 220.919289,112.463183 218.090287,111.657957 C215.261286,110.584323 212.946648,109.510689 211.146375,108.437055 C209.088919,107.095012 207.031464,105.484561 204.716826,103.337292 L213.461012,92.6009501 C215.518468,94.7482185 217.833105,96.3586698 219.890561,97.432304 C221.948016,98.5059382 224.777018,99.3111639 227.863201,99.3111639 C231.72093,99.3111639 234.807114,98.2375297 237.378933,96.3586698 C239.950752,94.47981 241.236662,91.5273159 241.236662,88.0380048 L241.236662,81.0593824 C239.69357,83.4750594 237.636115,85.6223278 234.549932,87.2327791 C231.463748,88.8432304 227.863201,89.6484561 223.74829,89.6484561 C219.633379,89.6484561 215.518468,88.5748219 211.917921,86.1591449 C208.317373,84.0118765 205.488372,80.7909739 203.173735,76.7648456 C201.116279,72.7387173 199.830369,68.4441805 199.830369,63.6128266 C199.830369,58.7814727 200.859097,54.2185273 203.173735,50.192399 C205.488372,46.1662708 208.317373,42.9453682 212.175103,40.5296912 C215.77565,38.1140143 219.633379,37.04038 223.74829,37.04038 C227.606019,37.04038 230.949384,37.5771971 234.035568,38.6508314 C237.121751,39.7244656 239.436389,41.3349169 240.97948,43.2137767 L242.522572,39.456057 L256.410397,39.456057 Z M241.236662,69.5178147 L241.236662,57.4394299 C240.207934,55.023753 238.664843,53.1448931 236.350205,51.8028504 C234.035568,50.4608076 231.463748,49.6555819 228.377565,49.6555819 C224.777018,49.6555819 221.690834,50.9976247 219.119015,53.4133017 C216.547196,55.8289786 215.261286,59.0498812 215.261286,63.0760095 C215.261286,66.8337292 216.547196,70.3230404 219.119015,73.0071259 C221.690834,75.6912114 224.777018,77.0332542 228.377565,77.0332542 C234.29275,76.7648456 238.664843,74.3491686 241.236662,69.5178147 Z" id="Shape"></path>
                    <path d="M268.75513,49.6555819 C271.069767,45.6294537 274.155951,42.6769596 278.270862,40.2612827 C282.385773,38.1140143 287.015048,36.7719715 292.158687,36.7719715 C297.302326,36.7719715 301.931601,37.8456057 306.046512,40.2612827 C309.904241,42.4085511 312.990424,45.6294537 315.305062,49.6555819 C317.362517,53.6817102 318.648427,57.976247 318.648427,63.0760095 C318.648427,68.175772 317.619699,72.4703088 315.305062,76.4964371 C313.247606,80.5225653 310.161423,83.7434679 306.046512,85.8907363 C302.188782,88.0380048 297.302326,89.3800475 292.158687,89.3800475 C287.015048,89.3800475 282.385773,88.3064133 278.270862,86.1591449 C274.155951,84.0118765 271.069767,81.0593824 268.75513,77.0332542 C266.440492,73.0071259 265.411765,68.4441805 265.411765,62.807601 C265.411765,58.2446556 266.440492,53.6817102 268.75513,49.6555819 Z M283.671683,73.0071259 C285.729138,75.6912114 288.55814,76.7648456 291.901505,76.7648456 C295.24487,76.7648456 298.073871,75.4228029 300.131327,73.0071259 C302.188782,70.5914489 303.21751,67.1021378 303.21751,63.3444181 C303.21751,59.3182898 302.188782,56.0973872 300.131327,53.6817102 C298.073871,51.2660333 295.24487,49.9239905 291.901505,49.9239905 C288.55814,49.9239905 285.98632,51.2660333 283.671683,53.6817102 C281.357045,56.0973872 280.328317,59.5866983 280.328317,63.3444181 C280.585499,67.1021378 281.614227,70.3230404 283.671683,73.0071259 Z" id="Shape"></path>
                    <path d="M371.370725,41.0665083 C374.456908,43.7505938 375.742818,47.239905 376,51.5344418 L376,88.3064133 L360.826265,88.3064133 L360.826265,57.4394299 C360.569083,52.608076 358.254446,50.192399 353.882353,50.192399 C350.538988,50.192399 347.709986,51.8028504 345.652531,55.2921615 C343.595075,58.7814727 342.566347,63.0760095 342.566347,68.175772 L342.566347,88.3064133 L327.649795,88.3064133 L327.649795,39.456057 L341.280438,39.456057 L342.309166,47.239905 C344.109439,44.0190024 346.424077,41.6033254 349.51026,39.7244656 C352.596443,37.8456057 356.19699,37.04038 360.311902,37.04038 C364.683995,37.04038 368.541724,38.3824228 371.370725,41.0665083 Z" id="Path"></path>
                </g>
                <path d="M104.891144,39.1035941 C102.326568,37.4799154 98.9926199,37.4799154 96.1715867,39.1035941 L76.1678967,51.551797 L62.5756458,59.6701903 L42.5719557,72.1183932 C40.0073801,73.7420719 36.6734317,73.7420719 33.8523985,72.1183932 L17.9520295,62.3763214 C15.3874539,60.7526427 13.5922509,57.7758985 13.5922509,54.5285412 L13.5922509,35.3150106 C13.5922509,32.0676533 15.1309963,29.0909091 17.9520295,27.4672304 L33.595941,17.9957717 C36.1605166,16.372093 39.4944649,16.372093 42.3154982,17.9957717 L57.9594096,27.4672304 C60.5239852,29.0909091 62.3191882,32.0676533 62.3191882,35.3150106 L62.3191882,47.7632135 L75.9114391,39.3742072 L75.9114391,26.9260042 C75.9114391,23.6786469 74.3726937,20.7019027 71.5516605,19.0782241 L42.5719557,1.21775899 C40.0073801,-0.405919662 36.6734317,-0.405919662 33.8523985,1.21775899 L4.3597786,19.0782241 C1.53874539,20.7019027 0,23.6786469 0,26.9260042 L0,62.9175476 C0,66.1649049 1.53874539,69.141649 4.3597786,70.7653277 L33.8523985,88.6257928 C36.4169742,90.2494715 39.7509225,90.2494715 42.5719557,88.6257928 L62.5756458,76.448203 L76.1678967,68.0591966 L96.1715867,55.8816068 C98.7361624,54.2579281 102.070111,54.2579281 104.891144,55.8816068 L120.535055,65.3530655 C123.099631,66.9767442 124.894834,69.9534884 124.894834,73.2008457 L124.894834,92.4143763 C124.894834,95.6617336 123.356089,98.6384778 120.535055,100.262156 L104.891144,110.004228 C102.326568,111.627907 98.9926199,111.627907 96.1715867,110.004228 L80.5276753,100.53277 C77.9630996,98.9090909 76.1678967,95.9323467 76.1678967,92.6849894 L76.1678967,80.2367865 L62.5756458,88.6257928 L62.5756458,101.073996 C62.5756458,104.321353 64.1143911,107.298097 66.9354244,108.921776 L96.4280443,126.782241 C98.9926199,128.40592 102.326568,128.40592 105.147601,126.782241 L134.640221,108.921776 C137.204797,107.298097 139,104.321353 139,101.073996 L139,65.0824524 C139,61.8350951 137.461255,58.858351 134.640221,57.2346723 L104.891144,39.1035941 Z" id="Path" fill="#8449E9"></path>
            </g>
        </g>
    </g>
</svg>